<?xml version="1.0" encoding="UTF-8"?><svg id="Layer_2" xmlns="http://www.w3.org/2000/svg" viewBox="0 0 1285.41 612.02"><g id="Layer_2-2"><g><g><g><path d="m200.66,611.65h-99.78v-240.62h98.86v31.83h-62.88v70.26h54.12v31.21h-54.12v75.49h63.81v31.83Z" style="fill:#216292; stroke:#216292; stroke-width:.74px;"/><path d="m345.18,611.65h-38.9l-26.44-84.71-26.6,84.71h-38.28v-1.23l44.89-121.92c-28.19-77.9-42.23-117.05-42.13-117.46h38.44l23.98,78.41,24.14-78.41h38.13v1.38l-42.13,115.16,44.89,124.07Z" style="fill:#216292; stroke:#216292; stroke-width:.74px;"/><path d="m482.17,589.66c0,14.66-7.33,21.99-21.99,21.99h-75.03c-14.25,0-21.37-7.33-21.37-21.99v-196.49c0-14.76,7.12-22.14,21.37-22.14h75.03c14.66,0,21.99,7.38,21.99,22.14v56.27h-35.82v-47.51h-46.59v178.81h46.59v-50.58h35.82v59.5Z" style="fill:#216292; stroke:#216292; stroke-width:.74px;"/><path d="m631.46,611.65h-36.28v-107.93h-48.74v107.93h-35.98v-240.62h35.98v99.17h48.74v-99.17h36.28v240.62Z" style="fill:#216292; stroke:#216292; stroke-width:.74px;"/><path d="m781.98,611.65h-35.67l-7.23-45.66h-45.05l-7.23,45.66h-35.52v-.62l46.59-240.31h37.82l46.28,240.92Zm-47.97-76.57l-17.53-108.55-17.68,108.55h35.21Z" style="fill:#216292; stroke:#216292; stroke-width:.74px;"/><path d="m924.05,611.65h-31.52l-57.66-151.44c1.54,7.38,2.31,13.17,2.31,17.37v134.07h-35.05v-240.62h31.52l57.66,148.37c-1.54-7.38-2.31-13.17-2.31-17.37v-130.99h35.05v240.62Z" style="fill:#216292; stroke:#216292; stroke-width:.74px;"/><path d="m1071.95,589.66c0,14.66-7.33,21.99-21.99,21.99h-75.64c-14.25,0-21.37-7.33-21.37-21.99v-196.49c0-14.76,7.28-22.14,21.83-22.14h75.18c14.66,0,21.99,7.38,21.99,22.14v51.35h-36.13v-42.59h-46.89v178.81h46.89v-67.34h-26.75v-30.6h62.88v106.85Z" style="fill:#216292; stroke:#216292; stroke-width:.74px;"/><path d="m1200.48,611.65h-99.78v-240.62h98.86v31.83h-62.88v70.26h54.12v31.21h-54.12v75.49h63.81v31.83Z" style="fill:#216292; stroke:#216292; stroke-width:.74px;"/></g><g><path d="m200.66,611.65h-99.78v-240.62h98.86v31.83h-62.88v70.26h54.12v31.21h-54.12v75.49h63.81v31.83Z" style="fill:#56ba5c;"/><path d="m345.18,611.65h-38.9l-26.44-84.71-26.6,84.71h-38.28v-1.23l44.89-121.92c-28.19-77.9-42.23-117.05-42.13-117.46h38.44l23.98,78.41,24.14-78.41h38.13v1.38l-42.13,115.16,44.89,124.07Z" style="fill:#56ba5c;"/><path d="m482.17,589.66c0,14.66-7.33,21.99-21.99,21.99h-75.03c-14.25,0-21.37-7.33-21.37-21.99v-196.49c0-14.76,7.12-22.14,21.37-22.14h75.03c14.66,0,21.99,7.38,21.99,22.14v56.27h-35.82v-47.51h-46.59v178.81h46.59v-50.58h35.82v59.5Z" style="fill:#56ba5c;"/><path d="m631.46,611.65h-36.28v-107.93h-48.74v107.93h-35.98v-240.62h35.98v99.17h48.74v-99.17h36.28v240.62Z" style="fill:#56ba5c;"/><path d="m781.98,611.65h-35.67l-7.23-45.66h-45.05l-7.23,45.66h-35.52v-.62l46.59-240.31h37.82l46.28,240.92Zm-47.97-76.57l-17.53-108.55-17.68,108.55h35.21Z" style="fill:#56ba5c;"/><path d="m924.05,611.65h-31.52l-57.66-151.44c1.54,7.38,2.31,13.17,2.31,17.37v134.07h-35.05v-240.62h31.52l57.66,148.37c-1.54-7.38-2.31-13.17-2.31-17.37v-130.99h35.05v240.62Z" style="fill:#56ba5c;"/><path d="m1071.95,589.66c0,14.66-7.33,21.99-21.99,21.99h-75.64c-14.25,0-21.37-7.33-21.37-21.99v-196.49c0-14.76,7.28-22.14,21.83-22.14h75.18c14.66,0,21.99,7.38,21.99,22.14v51.35h-36.13v-42.59h-46.89v178.81h46.89v-67.34h-26.75v-30.6h62.88v106.85Z" style="fill:#56ba5c;"/><path d="m1200.48,611.65h-99.78v-240.62h98.86v31.83h-62.88v70.26h54.12v31.21h-54.12v75.49h63.81v31.83Z" style="fill:#56ba5c;"/></g></g><g><g><polygon points="219.5 167.3 219.5 132.05 210.41 132.05 210.41 157.22 149.29 157.22 149.29 230.64 158.38 230.64 158.38 167.3 219.5 167.3" style="fill:#56ba5c;"/><polygon points="221.35 252.56 221.35 278.41 117.75 278.41 117.75 288.5 230.44 288.5 230.44 252.56 221.35 252.56" style="fill:#56ba5c;"/><polygon points="229.39 16.76 220.31 16.76 220.31 42.62 149.29 42.62 149.29 110.14 158.38 110.14 158.38 52.7 229.39 52.7 229.39 16.76" style="fill:#56ba5c;"/></g><g><polygon points="288.2 165.81 288.2 278.41 258.22 278.41 258.22 288.5 297.28 288.5 297.28 201.56 288.2 165.81" style="fill:#56ba5c;"/><polygon points="325.35 133 327.5 125.44 296.59 16.76 292.29 16.76 325.35 133" style="fill:#56ba5c;"/><polygon points="413.39 16.76 413.39 278.41 383.41 278.41 383.41 288.5 422.47 288.5 422.47 16.76 413.39 16.76" style="fill:#56ba5c;"/><polygon points="362.49 166.08 340.37 253.58 327.54 253.58 330.1 263.67 350.76 263.67 362.49 217.28 362.49 166.08" style="fill:#56ba5c;"/></g><g><polygon points="556.69 167.3 556.69 132.05 547.61 132.05 547.61 157.22 486.49 157.22 486.49 230.64 495.57 230.64 495.57 167.3 556.69 167.3" style="fill:#56ba5c;"/><polygon points="558.55 252.56 558.55 278.41 454.94 278.41 454.94 288.5 567.63 288.5 567.63 252.56 558.55 252.56" style="fill:#56ba5c;"/><polygon points="566.59 16.76 557.5 16.76 557.5 42.62 486.49 42.62 486.49 110.14 495.57 110.14 495.57 52.7 566.59 52.7 566.59 16.76" style="fill:#56ba5c;"/></g><g><polygon points="626.96 148.75 626.96 278.41 595.41 278.41 595.41 288.5 636.04 288.5 636.04 174.36 626.96 148.75" style="fill:#56ba5c;"/><polygon points="626.96 115.87 636.04 115.87 636.04 51.66 666.35 51.66 666.35 41.58 626.96 41.58 626.96 115.87" style="fill:#56ba5c;"/><path d="m689.69,165.39c13.43,0,22.23-.87,26.39-2.6,7.75-3.36,11.63-10.77,11.63-22.23V41.77c0-10.3-3.13-17.41-9.37-21.35.19,1.7.28,3.49.28,5.35v98.8c0,17.42-8.27,24.65-15.2,27.65-2.69,1.12-7.6,2.53-20.34,2.96l44.85,123.24h-39.39l3.58,10.08h42.37l-44.8-123.11Z" style="fill:#56ba5c;"/></g><g><polygon points="828.51 226.84 787.75 226.84 779.59 278.41 751.24 278.41 749.42 287.8 749.42 288.5 789.53 288.5 797.69 236.93 830.11 236.93 828.51 226.84" style="fill:#56ba5c;"/><polygon points="795.03 180.11 806.65 180.11 813.8 136.2 808.02 100.39 795.03 180.11" style="fill:#56ba5c;"/><polygon points="844.75 16.42 838.85 16.42 889.17 278.41 855.13 278.41 856.73 288.5 897.01 288.5 844.75 16.42" style="fill:#56ba5c;"/></g><g><rect x="951.3" y="16.76" width="9.08" height="213.53" style="fill:#56ba5c;"/><polygon points="1017.46 252.21 1017.46 278.41 919.76 278.41 919.76 288.5 1026.54 288.5 1026.54 252.21 1017.46 252.21" style="fill:#56ba5c;"/></g><g><path d="m1091.31,51.66h30.21c.73,0,1.43.03,2.13.07-1.82-7.11-7.14-10.15-17.13-10.15h-24.3v190.1h9.08V51.66Z" style="fill:#56ba5c;"/><path d="m1174.59,33.46c1.62,5.76,2.44,12.05,2.44,18.87v168.94c0,17.58-5.4,31.66-16.06,41.86-10.58,10.13-24.87,15.27-42.46,15.27h-67.82v10.08h82.82c16.09,0,28.88-4.54,38.37-13.63,9.49-9.09,14.24-21.62,14.24-37.59V68.33c0-14.36-3.85-25.98-11.52-34.87Z" style="fill:#56ba5c;"/></g></g><g><g><path d="m215.44,272.5h-112.69V.76h111.65v35.94h-71.02v79.35h61.12v35.25h-61.12v85.25h72.06v35.94Z" style="fill:#216292; stroke:#216292; stroke-width:.83px;"/><path d="m407.47,272.5h-39.07v-134.04c0-7.06.81-16.9,2.43-29.52l-35.07,138.73h-20.66l-35.25-138.73c1.62,12.85,2.43,22.69,2.43,29.52v134.04h-39.07V.76h38.37l42.71,150.19c.46,1.62.81,5.73,1.04,12.33,0-2.89.35-7,1.04-12.33L369.1.76h38.37v271.73Z" style="fill:#216292; stroke:#216292; stroke-width:.83px;"/><path d="m552.63,272.5h-112.69V.76h111.65v35.94h-71.02v79.35h61.12v35.25h-61.12v85.25h72.06v35.94Z" style="fill:#216292; stroke:#216292; stroke-width:.83px;"/><path d="m719.49,272.5h-42.37l-44.8-126.23v-24.48h39.94V35.66h-51.22v236.83h-40.63V.76h107.83c16.32,0,24.48,8.33,24.48,25v98.8c0,11.46-3.88,18.87-11.63,22.23-4.17,1.74-12.97,2.6-26.39,2.6l44.8,123.11Z" style="fill:#216292; stroke:#216292; stroke-width:.83px;"/><path d="m882.01,272.5h-40.28l-8.16-51.57h-50.87l-8.16,51.57h-40.11v-.69L787.03.42h42.71l52.26,272.08Zm-54.17-86.47l-19.79-122.58-19.97,122.58h39.76Z" style="fill:#216292; stroke:#216292; stroke-width:.83px;"/><path d="m1011.54,272.5h-106.78V.76h40.63v235.45h66.15v36.29Z" style="fill:#216292; stroke:#216292; stroke-width:.83px;"/><path d="m1171.11,221.28c0,15.97-4.75,28.51-14.24,37.59-9.49,9.09-22.28,13.63-38.37,13.63h-82.82V.76h82.82c16.09,0,28.88,4.6,38.37,13.8,9.49,9.2,14.24,21.79,14.24,37.77v168.94Zm-40.8-6.77V58.41c0-15.16-7.93-22.75-23.79-22.75h-30.21v201.93h29.17c16.55,0,24.83-7.7,24.83-23.09Z" style="fill:#216292; stroke:#216292; stroke-width:.83px;"/></g><g><path d="m215.44,272.5h-112.69V.76h111.65v35.94h-71.02v79.35h61.12v35.25h-61.12v85.25h72.06v35.94Z" style="fill:#fff;"/><path d="m407.47,272.5h-39.07v-134.04c0-7.06.81-16.9,2.43-29.52l-35.07,138.73h-20.66l-35.25-138.73c1.62,12.85,2.43,22.69,2.43,29.52v134.04h-39.07V.76h38.37l42.71,150.19c.46,1.62.81,5.73,1.04,12.33,0-2.89.35-7,1.04-12.33L369.1.76h38.37v271.73Z" style="fill:#fff;"/><path d="m552.63,272.5h-112.69V.76h111.65v35.94h-71.02v79.35h61.12v35.25h-61.12v85.25h72.06v35.94Z" style="fill:#fff;"/><path d="m719.49,272.5h-42.37l-44.8-126.23v-24.48h39.94V35.66h-51.22v236.83h-40.63V.76h107.83c16.32,0,24.48,8.33,24.48,25v98.8c0,11.46-3.88,18.87-11.63,22.23-4.17,1.74-12.97,2.6-26.39,2.6l44.8,123.11Z" style="fill:#fff;"/><path d="m882.01,272.5h-40.28l-8.16-51.57h-50.87l-8.16,51.57h-40.11v-.69L787.03.42h42.71l52.26,272.08Zm-54.17-86.47l-19.79-122.58-19.97,122.58h39.76Z" style="fill:#fff;"/><path d="m1011.54,272.5h-106.78V.76h40.63v235.45h66.15v36.29Z" style="fill:#fff;"/><path d="m1171.11,221.28c0,15.97-4.75,28.51-14.24,37.59-9.49,9.09-22.28,13.63-38.37,13.63h-82.82V.76h82.82c16.09,0,28.88,4.6,38.37,13.8,9.49,9.2,14.24,21.79,14.24,37.77v168.94Zm-40.8-6.77V58.41c0-15.16-7.93-22.75-23.79-22.75h-30.21v201.93h29.17c16.55,0,24.83-7.7,24.83-23.09Z" style="fill:#fff;"/></g></g><g><path d="m1216.93,336.05H68.48c-5.33,0-9.65-4.32-9.65-9.65s4.32-9.65,9.65-9.65h1148.45c5.33,0,9.65,4.32,9.65,9.65s-4.32,9.65-9.65,9.65Z" style="fill:#56ba5c;"/><path d="m39.07,365.47c-21.54,0-39.07-17.53-39.07-39.07s17.53-39.07,39.07-39.07,39.07,17.53,39.07,39.07-17.53,39.07-39.07,39.07Zm0-58.83c-10.9,0-19.76,8.86-19.76,19.76s8.86,19.76,19.76,19.76,19.76-8.86,19.76-19.76-8.86-19.76-19.76-19.76Z" style="fill:#56ba5c;"/><path d="m1246.35,365.47c-21.54,0-39.07-17.53-39.07-39.07s17.53-39.07,39.07-39.07,39.07,17.53,39.07,39.07-17.53,39.07-39.07,39.07Zm0-58.83c-10.9,0-19.76,8.86-19.76,19.76s8.86,19.76,19.76,19.76,19.76-8.86,19.76-19.76-8.86-19.76-19.76-19.76Z" style="fill:#56ba5c;"/></g></g></g></svg>