<?xml version="1.0" encoding="UTF-8"?><svg id="Layer_2" xmlns="http://www.w3.org/2000/svg" viewBox="0 0 3134.17 756.33"><g id="Layer_2-2"><g><g><path d="m1235.82,39.07h1804.45" style="fill:#fff; stroke:#2bc0d3; stroke-linecap:round; stroke-linejoin:round; stroke-width:19.31px;"/><circle cx="1206.41" cy="39.07" r="29.41" style="fill:none; stroke:#2bc0d3; stroke-linecap:round; stroke-linejoin:round; stroke-width:19.31px;"/><circle cx="3069.68" cy="39.07" r="29.41" style="fill:none; stroke:#2bc0d3; stroke-linecap:round; stroke-linejoin:round; stroke-width:19.31px;"/></g><line x1="15.44" y1="684.97" x2="3091.2" y2="684.97" style="fill:#fff; stroke:#2bc0d3; stroke-linecap:round; stroke-linejoin:round; stroke-width:19.31px;"/><g><g><path d="m1391.23,623.02h-209.81V117.08h207.87v66.92h-132.22v147.74h113.8v65.63h-113.8v158.73h134.16v66.92Z" style="fill:#216292; stroke:#216292; stroke-width:1.55px;"/><path d="m1694.79,117.08l-96.98,506.58h-75.32l-96.66-506.58h75.97l56.57,346.88c.43,9.92,1.08,24.36,1.94,43.32-.22-9.91.43-24.35,1.94-43.32l56.9-346.88h75.65Z" style="fill:#216292; stroke:#216292; stroke-width:1.55px;"/><path d="m1992.53,576.79c0,30.82-15.31,46.23-45.91,46.23h-164.23c-29.96,0-44.94-15.41-44.94-46.23V163.63c0-31.04,14.98-46.55,44.94-46.55h164.23c30.6,0,45.91,15.52,45.91,46.55v413.15Zm-75.65-18.75V182.06h-103.77v375.98h103.77Z" style="fill:#216292; stroke:#216292; stroke-width:1.55px;"/><path d="m2252.13,623.02h-198.82V117.08h75.65v438.37h123.17v67.57Z" style="fill:#216292; stroke:#216292; stroke-width:1.55px;"/><path d="m2548.9,117.08l-96.98,506.58h-75.32l-96.66-506.58h75.97l56.57,346.88c.43,9.92,1.08,24.36,1.94,43.32-.22-9.91.43-24.35,1.94-43.32l56.9-346.88h75.65Z" style="fill:#216292; stroke:#216292; stroke-width:1.55px;"/><path d="m2801.39,623.02h-209.81V117.08h207.87v66.92h-132.22v147.74h113.8v65.63h-113.8v158.73h134.16v66.92Z" style="fill:#216292; stroke:#216292; stroke-width:1.55px;"/><path d="m3105.27,527.65c0,29.74-8.84,53.07-26.51,69.99-17.67,16.92-41.49,25.38-71.45,25.38h-154.21V117.08h154.21c29.95,0,53.77,8.57,71.45,25.7,17.67,17.13,26.51,40.57,26.51,70.31v314.55Zm-75.97-12.61V224.41c0-28.23-14.76-42.35-44.29-42.35h-56.25v375.98h54.31c30.82,0,46.23-14.33,46.23-43Z" style="fill:#216292; stroke:#216292; stroke-width:1.55px;"/></g><g><path d="m1391.23,623.02h-209.81V117.08h207.87v66.92h-132.22v147.74h113.8v65.63h-113.8v158.73h134.16v66.92Z" style="fill:#2bc0d3;"/><path d="m1694.79,117.08l-96.98,506.58h-75.32l-96.66-506.58h75.97l56.57,346.88c.43,9.92,1.08,24.36,1.94,43.32-.22-9.91.43-24.35,1.94-43.32l56.9-346.88h75.65Z" style="fill:#2bc0d3;"/><path d="m1992.53,576.79c0,30.82-15.31,46.23-45.91,46.23h-164.23c-29.96,0-44.94-15.41-44.94-46.23V163.63c0-31.04,14.98-46.55,44.94-46.55h164.23c30.6,0,45.91,15.52,45.91,46.55v413.15Zm-75.65-18.75V182.06h-103.77v375.98h103.77Z" style="fill:#2bc0d3;"/><path d="m2252.13,623.02h-198.82V117.08h75.65v438.37h123.17v67.57Z" style="fill:#2bc0d3;"/><path d="m2548.9,117.08l-96.98,506.58h-75.32l-96.66-506.58h75.97l56.57,346.88c.43,9.92,1.08,24.36,1.94,43.32-.22-9.91.43-24.35,1.94-43.32l56.9-346.88h75.65Z" style="fill:#2bc0d3;"/><path d="m2801.39,623.02h-209.81V117.08h207.87v66.92h-132.22v147.74h113.8v65.63h-113.8v158.73h134.16v66.92Z" style="fill:#2bc0d3;"/><path d="m3105.27,527.65c0,29.74-8.84,53.07-26.51,69.99-17.67,16.92-41.49,25.38-71.45,25.38h-154.21V117.08h154.21c29.95,0,53.77,8.57,71.45,25.7,17.67,17.13,26.51,40.57,26.51,70.31v314.55Zm-75.97-12.61V224.41c0-28.23-14.76-42.35-44.29-42.35h-56.25v375.98h54.31c30.82,0,46.23-14.33,46.23-43Z" style="fill:#2bc0d3;"/></g></g><g><g><polygon points="182.81 306.06 189.15 283.75 115.56 25 102.87 25 182.81 306.06" style="fill:#2bc0d3;"/><polygon points="98.06 355.59 98.06 604.61 25 604.61 25 624.61 118.06 624.61 118.06 434.31 98.06 355.59" style="fill:#2bc0d3;"/><polygon points="261.29 354.12 212.49 550.55 177.31 550.55 182.39 570.55 233.6 570.55 261.29 457.6 261.29 354.12" style="fill:#2bc0d3;"/><polygon points="370.61 25 370.61 604.61 297.56 604.61 297.56 624.61 390.61 624.61 390.61 25 370.61 25" style="fill:#2bc0d3;"/></g><g><polygon points="529.76 88.98 529.76 504.19 549.76 504.19 549.76 108.98 619.52 108.98 619.52 88.98 529.76 88.98" style="fill:#2bc0d3;"/><path d="m732.38,541.55c0,20.41-5.43,36.19-16.15,46.91-10.72,10.72-26.5,16.15-46.91,16.15h-184.48c-8.76,0-16.64-1.05-23.62-3.14,1.81,3.12,3.92,5.93,6.34,8.42,9.5,9.77,23.72,14.72,42.28,14.72h184.48c19.03,0,33.63-4.94,43.37-14.68,9.75-9.74,14.69-24.34,14.69-43.37v-150.3h-20v125.3Z" style="fill:#2bc0d3;"/><path d="m737.7,39.79c-2.59-2.61-5.54-4.87-8.81-6.79,2.31,7.46,3.48,15.94,3.48,25.44v147.36h-76.08v20h96.08V83.44c0-19.15-4.94-33.84-14.68-43.65Z" style="fill:#2bc0d3;"/></g><g><rect x="888.88" y="421.55" width="20" height="82.65" style="fill:#2bc0d3;"/><polygon points="888.88 87.47 888.88 174.19 908.88 193.04 908.88 107.47 972.82 107.47 972.82 87.47 888.88 87.47" style="fill:#2bc0d3;"/><path d="m1084.92,374.63l-5.13-4.83c3.76,9.18,5.66,19.45,5.66,30.75v141c0,20.4-5.4,36.17-16.04,46.89-10.66,10.73-26.35,16.17-46.64,16.17h-178.05c-9.05,0-17.17-1.1-24.35-3.28,1.85,3.18,4.02,6.05,6.52,8.58,9.62,9.76,24.03,14.7,42.82,14.7h178.05c18.91,0,33.41-4.94,43.1-14.69,9.68-9.74,14.58-24.33,14.58-43.36v-141c0-20.96-6.91-38.1-20.54-50.92Z" style="fill:#2bc0d3;"/><path d="m1090.86,39.59c-2.58-2.58-5.51-4.81-8.77-6.71,2.23,7.29,3.36,15.56,3.36,24.8v141.31h-76.46v20h96.46V82.68c0-18.91-4.91-33.4-14.59-43.09Z" style="fill:#2bc0d3;"/></g></g><g><path d="m357.61,591.61h-85.06v-291.83c0-15.37,1.76-36.79,5.29-64.26l-76.36,302.04h-44.98L79.76,235.51c3.53,27.97,5.29,49.4,5.29,64.26v291.83H0V0h83.54l92.99,326.99c1,3.53,1.76,12.47,2.27,26.84,0-6.3.76-15.24,2.27-26.84L274.07,0h83.54v591.61Z" style="fill:#fff;"/><path d="m719.38,537.55c0,36.04-18.02,54.06-54.06,54.06h-184.48c-35.03,0-52.55-18.02-52.55-54.06V54.44c0-36.29,17.51-54.44,52.55-54.44h184.48c36.04,0,54.06,18.15,54.06,54.44v138.36h-88.08v-116.81h-114.54v439.64h114.54v-124.37h88.08v146.3Z" style="fill:#fff;"/><path d="m1072.45,537.55c0,36.04-17.9,54.06-53.68,54.06h-178.05c-35.53,0-53.3-18.02-53.3-54.06v-141h88.46v120.59h108.11v-116.05l-177.29-167.84c-12.85-12.35-19.28-28.1-19.28-47.25V54.44c0-36.29,17.77-54.44,53.3-54.44h178.05c35.78,0,53.68,17.9,53.68,53.68v132.31h-88.46v-111.52h-108.11v106.98l177.29,167.09c12.85,12.1,19.28,28.1,19.28,48.01v141Z" style="fill:#fff;"/></g></g></g></svg>