<?xml version="1.0" standalone="no"?>
<!DOCTYPE svg PUBLIC "-//W3C//DTD SVG 20010904//EN"
 "http://www.w3.org/TR/2001/REC-SVG-20010904/DTD/svg10.dtd">
<svg version="1.0" xmlns="http://www.w3.org/2000/svg"
 width="5121.000000pt" height="5121.000000pt" viewBox="0 0 5121.000000 5121.000000"
 preserveAspectRatio="xMidYMid meet">

<g transform="translate(0.000000,5121.000000) scale(0.100000,-0.100000)"
fill="#000000" stroke="none">
<path d="M10 25600 l0 -25600 25600 0 25600 0 0 25600 0 25600 -25600 0
-25600 0 0 -25600z m7463 20928 c25 -90 863 -3036 1862 -6548 999 -3512 1823
-6419 1830 -6460 19 -107 42 -357 57 -630 l13 -235 7 105 c15 209 40 469 64
665 l25 200 1857 6530 1858 6530 1672 3 1672 2 0 -11835 0 -11835 -1700 0
-1700 0 3 6118 c2 4690 6 6152 15 6267 60 743 84 982 147 1509 19 159 34 291
32 292 -1 2 -686 -2701 -1522 -6007 l-1519 -6009 -902 0 -902 0 -11 48 c-120
481 -3044 11978 -3048 11982 -3 3 -3 -8 1 -25 10 -49 74 -609 106 -925 31
-309 61 -677 82 -1015 10 -158 13 -1457 13 -6215 l0 -6015 -1700 0 -1700 0 -3
11833 -2 11832 1674 0 1673 0 46 -162z m23477 152 c367 -26 656 -95 910 -216
601 -287 924 -830 989 -1663 8 -91 11 -1071 11 -2978 l0 -2843 -1760 0 -1760
0 -2 2333 -3 2332 -2287 3 -2288 2 0 -8795 0 -8795 2288 2 2287 3 3 2488 2
2487 1760 0 1760 0 0 -3003 c0 -2020 -3 -3047 -11 -3138 -20 -258 -56 -448
-124 -656 -220 -671 -727 -1068 -1509 -1183 -270 -40 -385 -41 -4346 -38
-4210 4 -3890 0 -4200 64 -358 74 -678 233 -899 447 -125 122 -267 326 -342
493 -102 228 -170 513 -199 829 -14 155 -14 19826 0 19990 84 982 545 1570
1385 1768 134 32 302 57 450 67 177 12 7716 12 7885 0z m14309 -13 c289 -40
543 -109 735 -201 483 -229 789 -638 920 -1226 65 -293 60 -57 63 -3167 l3
-2823 -1770 0 -1770 0 0 2230 0 2230 -2160 0 -2160 0 0 -2139 0 -2139 3533
-3328 c1942 -1830 3579 -3375 3636 -3433 387 -394 615 -901 676 -1501 14 -138
15 -492 13 -3250 l-4 -3095 -22 -139 c-81 -513 -240 -859 -521 -1137 -316
-311 -769 -482 -1381 -519 -225 -13 -7325 -13 -7550 0 -392 24 -691 96 -963
231 -536 266 -835 746 -934 1499 -16 126 -18 327 -20 3103 l-3 2967 1770 0
1770 0 0 -2415 0 -2415 2160 0 2160 0 0 2323 0 2324 -3522 3334 c-1938 1833
-3568 3379 -3624 3436 -427 433 -660 970 -705 1622 -7 107 -9 1036 -7 2961 4
3088 0 2883 64 3197 88 433 278 787 546 1021 316 276 766 435 1313 465 33 2
1763 3 3845 2 3510 -1 3794 -2 3909 -18z m-35081 -6154 l1472 -5178 -120 -420
c-66 -231 -123 -428 -127 -438 -6 -13 -505 1726 -1602 5585 -876 3082 -1596
5609 -1598 5616 -4 9 50 12 249 12 l254 0 1472 -5177z m9532 -6813 l0 -11990
-1860 0 -1860 0 0 395 0 395 1460 0 1460 0 0 11595 0 11595 400 0 400 0 0
-11990z m27770 11599 c480 -326 750 -866 809 -1618 8 -91 11 -1060 11 -2943
l0 -2808 -1925 0 -1925 0 0 400 0 400 1530 0 1531 0 -4 2963 c-3 2690 -5 2974
-20 3097 -22 179 -50 331 -85 468 -17 64 -25 109 -18 105 6 -3 49 -32 96 -64z
m-14115 -13 c134 -90 332 -292 428 -436 164 -248 276 -538 333 -865 50 -286
47 -110 51 -3327 l4 -2998 -1921 0 -1920 0 0 395 0 395 1520 0 1520 0 0 3053
c0 1950 -4 3095 -10 3172 -15 182 -48 384 -86 534 -18 75 -34 140 -34 144 0
10 4 8 115 -67z m9635 -2496 l0 -400 -1280 0 -1280 0 -2 -1709 -3 -1710 -397
375 -398 375 0 1735 0 1734 1680 0 1680 0 0 -400z m-14140 -60 l0 -400 -1392
-2 -1393 -3 -3 -7902 -2 -7903 -395 0 -395 0 0 8305 0 8305 1790 0 1790 0 0
-400z m-14859 -16526 c-291 -1187 -539 -2198 -551 -2246 l-22 -88 -1024 0
-1023 0 -10 38 c-5 20 -48 190 -96 377 -47 187 -88 348 -91 358 -5 16 33 17
696 17 l700 0 9 23 c4 12 442 1770 972 3906 l964 3883 3 -2054 2 -2055 -529
-2159z m-5591 4673 l390 -1538 0 -3814 0 -3815 -1855 0 -1855 0 0 395 0 395
1460 0 1460 0 1 4968 c0 2732 2 4963 4 4957 2 -5 180 -702 395 -1548z m39182
715 c411 -437 644 -987 698 -1646 14 -177 14 -6043 0 -6222 -89 -1112 -632
-1765 -1627 -1958 -279 -54 -47 -51 -4233 -51 -3723 0 -3901 1 -4025 18 -532
75 -910 241 -1213 531 -46 44 -113 117 -147 161 -69 88 -139 194 -133 201 3 2
36 -5 74 -16 102 -30 299 -66 464 -87 138 -17 341 -18 3975 -18 3104 0 3854 3
3955 13 628 67 1114 271 1463 615 370 365 572 840 648 1522 17 148 25 5843 10
6165 -18 354 -66 620 -164 912 l-53 156 123 -115 c67 -63 151 -145 185 -181z
m-13415 -4709 c-3 -2825 -5 -3171 -19 -3278 -48 -361 -111 -588 -228 -831
-287 -595 -809 -934 -1600 -1041 -129 -17 -321 -18 -4165 -18 -3834 0 -4036 1
-4150 18 -351 53 -610 135 -848 269 -208 117 -431 322 -559 514 -38 55 -68
103 -68 105 0 3 59 -10 130 -28 154 -38 350 -68 545 -83 192 -14 7713 -14
7915 0 1225 87 1963 692 2185 1795 63 312 59 95 62 3048 l3 2687 400 0 400 0
-3 -3157z m6263 1287 l0 -1650 -400 0 -400 0 0 1650 0 1650 400 0 400 0 0
-1650z m-36970 -6773 c300 -72 539 -205 755 -422 180 -179 307 -384 383 -620
l30 -90 20969 -3 20970 -2 31 97 c167 525 606 921 1160 1046 84 19 128 22 322
22 200 0 237 -3 329 -23 598 -134 1063 -594 1195 -1182 43 -192 46 -461 7
-651 -98 -485 -418 -893 -863 -1104 -111 -52 -211 -86 -350 -117 -91 -20 -129
-23 -318 -23 -184 1 -230 4 -317 23 -552 120 -990 513 -1164 1045 l-32 97
-20973 0 -20972 0 -7 -37 c-11 -59 -71 -208 -125 -312 -212 -401 -597 -690
-1058 -794 -83 -18 -128 -21 -317 -21 -190 0 -234 3 -322 22 -438 95 -820 376
-1037 760 -134 237 -197 482 -198 762 -1 222 34 404 111 594 184 449 570 792
1031 916 161 43 223 49 445 46 182 -4 224 -7 315 -29z m5930 -3912 l0 -715
-1415 0 -1415 0 0 -1585 0 -1585 1220 0 1220 0 0 -705 0 -705 -1220 0 -1220 0
0 -1700 0 -1700 1435 0 1435 0 0 -715 0 -715 -2245 0 -2245 0 0 5420 0 5420
2225 0 2225 0 0 -715z m2419 653 c6 -35 278 -1704 605 -3711 l595 -3647 16
-373 c20 -485 29 -539 38 -242 15 514 -17 297 645 4330 l608 3700 808 3 809 2
-6 -27 c-3 -16 -470 -2457 -1038 -5425 l-1033 -5398 -806 0 -805 0 -1033 5418
c-568 2979 -1033 5420 -1032 5425 0 4 364 7 809 7 l809 0 11 -62z m9807 39
c377 -70 586 -247 667 -564 l22 -88 0 -4745 0 -4745 -22 -88 c-83 -325 -309
-509 -698 -568 -74 -12 -435 -14 -2025 -14 -1828 0 -1940 1 -2030 18 -295 57
-481 181 -583 388 -52 107 -72 175 -87 304 -14 125 -14 9285 0 9410 15 128 35
197 87 303 115 234 342 367 688 402 44 4 937 7 1985 6 1744 -1 1913 -3 1996
-19z m3624 -4672 l0 -4695 1320 0 1320 0 0 -725 0 -725 -2130 0 -2130 0 0
5420 0 5420 810 0 810 0 0 -4695z m4869 4633 c6 -35 278 -1704 605 -3711 l595
-3647 16 -373 c20 -485 29 -539 38 -242 15 514 -17 297 645 4330 l608 3700
808 3 809 2 -6 -27 c-3 -16 -470 -2457 -1038 -5425 l-1033 -5398 -806 0 -805
0 -1033 5418 c-568 2979 -1033 5420 -1032 5425 0 4 364 7 809 7 l809 0 11 -62z
m9491 -653 l0 -715 -1415 0 -1415 0 0 -1585 0 -1585 1220 0 1220 0 0 -705 0
-705 -1220 0 -1220 0 0 -1700 0 -1700 1435 0 1435 0 0 -715 0 -715 -2245 0
-2245 0 0 5420 0 5420 2225 0 2225 0 0 -715z m4840 692 c470 -71 824 -228
1109 -490 318 -294 502 -651 584 -1137 l21 -125 3 -3560 c3 -2469 1 -3600 -7
-3692 -43 -535 -222 -941 -557 -1263 -141 -136 -264 -223 -443 -313 -219 -110
-412 -169 -710 -214 -105 -15 -266 -17 -1897 -20 l-1783 -4 0 5421 0 5421
1783 -4 c1628 -3 1792 -5 1897 -20z"/>
<path d="M2980 20655 c-307 -62 -543 -282 -626 -585 -13 -48 -18 -100 -18
-200 0 -124 3 -143 32 -230 102 -309 358 -517 682 -553 79 -8 112 -7 193 6
184 32 309 97 442 231 156 156 226 326 227 546 0 126 -15 211 -58 312 -142
338 -522 544 -874 473z"/>
<path d="M47985 20663 c-125 -17 -292 -91 -392 -173 -120 -97 -215 -242 -265
-400 -19 -63 -23 -96 -23 -210 0 -160 14 -222 79 -355 237 -479 864 -590 1253
-222 246 232 316 600 173 906 -65 137 -188 273 -317 350 -146 86 -344 127
-508 104z"/>
<path d="M18480 12780 l0 -4030 1115 0 1115 0 0 4030 0 4030 -1115 0 -1115 0
0 -4030z"/>
<path d="M42390 12780 l0 -4030 651 0 c708 0 775 4 943 57 140 44 231 97 327
193 73 72 94 101 132 180 56 116 84 219 97 364 8 76 10 1134 8 3321 l-4 3210
-21 90 c-11 50 -33 121 -47 159 -102 268 -327 427 -671 475 -48 7 -326 11
-746 11 l-669 0 0 -4030z"/>
</g>
</svg>
